<svg width="82" height="80" viewBox="0 0 82 80" fill="none" xmlns="http://www.w3.org/2000/svg">
<rect x="20.9998" y="1" width="40" height="38" fill="#403EFF" stroke="white" stroke-width="2"/>
<rect x="0.999756" y="1" width="80" height="78" fill="#403EFF" stroke="white" stroke-width="2"/>
<path d="M25.7598 18.56C24.7038 16.992 22.6238 15.584 19.9998 15.584C16.2238 15.584 13.3758 18.848 13.3758 23.968C13.3758 29.056 16.2238 32.352 19.9998 32.352C22.6238 32.352 24.7038 30.944 25.7598 29.344V32H28.0638V9.6H25.7598V18.56ZM20.7358 30.56C17.9518 30.56 15.7758 27.808 15.7758 23.968C15.7758 20.128 17.9518 17.376 20.7358 17.376C23.0398 17.376 24.7038 18.72 25.7598 20.544V27.392C24.7038 29.216 23.0398 30.56 20.7358 30.56Z" fill="white"/>
<path d="M60.5098 13.73C60.5098 14.513 60.1618 14.919 59.2628 14.977L55.6958 15.209V16.775L60.5098 16.804V32H62.7138V11.7H60.5098V13.73Z" fill="white"/>
<path d="M61.7438 56.805C58.9598 56.805 56.7268 58.458 55.7988 60.691V60.459C55.7988 54.05 58.1478 51.034 61.5408 51.034C63.6868 51.034 65.4268 52.165 65.4268 54.688H67.6888C67.6888 51.121 65.0788 49.381 61.5408 49.381C56.9008 49.381 53.5948 53.238 53.5948 60.488C53.5948 67.1 56.4368 70.319 60.9318 70.319C65.2528 70.319 67.9788 67.593 67.9788 63.359C67.9788 59.415 65.0788 56.805 61.7438 56.805ZM60.9898 68.608C58.2638 68.608 56.5238 66.723 55.9728 63.127C56.7268 60.227 58.9888 58.661 61.2218 58.661C63.8028 58.661 65.7748 60.72 65.7748 63.62C65.7748 66.607 63.7738 68.608 60.9898 68.608Z" fill="white"/>
<path d="M25.7598 56.56C24.7038 54.992 22.6238 53.584 19.9998 53.584C16.2238 53.584 13.3758 56.848 13.3758 61.968C13.3758 67.056 16.2238 70.352 19.9998 70.352C22.6238 70.352 24.7038 68.944 25.7598 67.344V70H28.0638V47.6H25.7598V56.56ZM20.7358 68.56C17.9518 68.56 15.7758 65.808 15.7758 61.968C15.7758 58.128 17.9518 55.376 20.7358 55.376C23.0398 55.376 24.7038 56.72 25.7598 58.544V65.392C24.7038 67.216 23.0398 68.56 20.7358 68.56Z" fill="white"/>
<line x1="41.4998" y1="2" x2="41.4998" y2="80" stroke="white"/>
<line x1="79.9998" y1="40.5" x2="1.99976" y2="40.5" stroke="white"/>
</svg>
